<mxfile host="app.diagrams.net" modified="2021-07-13T05:10:17.987Z" agent="5.0 (Windows NT 10.0; WOW64) AppleWebKit/537.36 (KHTML, like Gecko) Chrome/91.0.4472.124 Safari/537.36" etag="F-7DHVRKiC5nSd1JrNsc" version="14.8.5" type="github">
  <diagram id="TrClBFL4rAFNl2b7ktLQ" name="Page-1">
    <mxGraphModel dx="1108" dy="482" grid="1" gridSize="10" guides="1" tooltips="1" connect="1" arrows="1" fold="1" page="1" pageScale="1" pageWidth="850" pageHeight="1100" math="0" shadow="0">
      <root>
        <mxCell id="0" />
        <mxCell id="1" parent="0" />
        <mxCell id="OkLDoi_2dcPa73barFD--1" value="" style="rounded=1;whiteSpace=wrap;html=1;" vertex="1" parent="1">
          <mxGeometry x="10" y="50" width="410" height="320" as="geometry" />
        </mxCell>
        <mxCell id="OkLDoi_2dcPa73barFD--4" value="" style="rounded=1;whiteSpace=wrap;html=1;" vertex="1" parent="1">
          <mxGeometry x="430" y="50" width="410" height="320" as="geometry" />
        </mxCell>
        <mxCell id="OkLDoi_2dcPa73barFD--5" value="DOCKER SWARM" style="text;html=1;strokeColor=none;fillColor=#33FF33;align=center;verticalAlign=middle;whiteSpace=wrap;rounded=0;shadow=1;" vertex="1" parent="1">
          <mxGeometry x="120" y="70" width="190" height="20" as="geometry" />
        </mxCell>
        <mxCell id="OkLDoi_2dcPa73barFD--6" value="KUBERNET" style="text;html=1;strokeColor=none;fillColor=#33FF33;align=center;verticalAlign=middle;whiteSpace=wrap;rounded=0;shadow=1;" vertex="1" parent="1">
          <mxGeometry x="570" y="70" width="170" height="20" as="geometry" />
        </mxCell>
        <mxCell id="OkLDoi_2dcPa73barFD--7" value="swarm cluster:set of nodes that have docker installed them" style="text;html=1;strokeColor=none;fillColor=none;align=center;verticalAlign=middle;whiteSpace=wrap;rounded=0;" vertex="1" parent="1">
          <mxGeometry x="45" y="110" width="340" height="40" as="geometry" />
        </mxCell>
        <mxCell id="OkLDoi_2dcPa73barFD--8" value="k8s cluster:set of minions each them having a conatiner tool install" style="text;html=1;strokeColor=none;fillColor=none;align=center;verticalAlign=middle;whiteSpace=wrap;rounded=0;" vertex="1" parent="1">
          <mxGeometry x="455" y="120" width="360" height="20" as="geometry" />
        </mxCell>
        <mxCell id="OkLDoi_2dcPa73barFD--9" value="manager and worker both will have work load&amp;nbsp;" style="text;html=1;strokeColor=none;fillColor=none;align=center;verticalAlign=middle;whiteSpace=wrap;rounded=0;" vertex="1" parent="1">
          <mxGeometry x="10" y="150" width="320" height="20" as="geometry" />
        </mxCell>
        <mxCell id="OkLDoi_2dcPa73barFD--10" value="master will not take any load&amp;nbsp;" style="text;html=1;strokeColor=none;fillColor=none;align=center;verticalAlign=middle;whiteSpace=wrap;rounded=0;" vertex="1" parent="1">
          <mxGeometry x="460" y="150" width="300" height="20" as="geometry" />
        </mxCell>
        <mxCell id="OkLDoi_2dcPa73barFD--11" value="t2.micro we can work in case of docker swarm that means it will work in less confi system&amp;nbsp;&amp;nbsp;" style="text;html=1;strokeColor=none;fillColor=none;align=center;verticalAlign=middle;whiteSpace=wrap;rounded=0;" vertex="1" parent="1">
          <mxGeometry x="20" y="190" width="360" height="20" as="geometry" />
        </mxCell>
        <mxCell id="OkLDoi_2dcPa73barFD--12" value="High configuration mechine :4gb 2 cpu core min required for kubernet clustor&amp;nbsp; &amp;nbsp;" style="text;html=1;strokeColor=none;fillColor=none;align=center;verticalAlign=middle;whiteSpace=wrap;rounded=0;" vertex="1" parent="1">
          <mxGeometry x="460" y="190" width="360" height="20" as="geometry" />
        </mxCell>
        <mxCell id="OkLDoi_2dcPa73barFD--13" value="Here we are doing auto scaling but it is doing manually like assigning up and down&amp;nbsp; &amp;nbsp;" style="text;html=1;strokeColor=none;fillColor=none;align=center;verticalAlign=middle;whiteSpace=wrap;rounded=0;" vertex="1" parent="1">
          <mxGeometry x="40" y="220" width="340" height="30" as="geometry" />
        </mxCell>
        <mxCell id="OkLDoi_2dcPa73barFD--14" value="&amp;nbsp;Here auto scaling is possible in automatically&amp;nbsp;" style="text;html=1;strokeColor=none;fillColor=none;align=center;verticalAlign=middle;whiteSpace=wrap;rounded=0;" vertex="1" parent="1">
          <mxGeometry x="460" y="230" width="350" height="20" as="geometry" />
        </mxCell>
        <mxCell id="OkLDoi_2dcPa73barFD--15" value="docker swarm can orchestrate only docker type of containers&amp;nbsp;" style="text;html=1;strokeColor=none;fillColor=none;align=center;verticalAlign=middle;whiteSpace=wrap;rounded=0;" vertex="1" parent="1">
          <mxGeometry x="40" y="260" width="350" height="30" as="geometry" />
        </mxCell>
        <mxCell id="OkLDoi_2dcPa73barFD--16" value="kubernet can orchestrate ant type of containers&amp;nbsp;" style="text;html=1;strokeColor=none;fillColor=none;align=center;verticalAlign=middle;whiteSpace=wrap;rounded=0;" vertex="1" parent="1">
          <mxGeometry x="470" y="260" width="330" height="20" as="geometry" />
        </mxCell>
        <mxCell id="OkLDoi_2dcPa73barFD--17" value="Here we can use default network which is present in docker&amp;nbsp;&amp;nbsp;" style="text;html=1;strokeColor=none;fillColor=none;align=center;verticalAlign=middle;whiteSpace=wrap;rounded=0;" vertex="1" parent="1">
          <mxGeometry x="40" y="290" width="340" height="20" as="geometry" />
        </mxCell>
        <mxCell id="OkLDoi_2dcPa73barFD--18" value="we have to choose the network that runs in the cluster based on the container run time&amp;nbsp;&amp;nbsp;" style="text;html=1;strokeColor=none;fillColor=none;align=center;verticalAlign=middle;whiteSpace=wrap;rounded=0;" vertex="1" parent="1">
          <mxGeometry x="455" y="290" width="345" height="30" as="geometry" />
        </mxCell>
      </root>
    </mxGraphModel>
  </diagram>
</mxfile>
